<?xml version="1.0" encoding="iso-8859-1"?>
<!-- Generator: Adobe Illustrator 19.0.0, SVG Export Plug-In . SVG Version: 6.00 Build 0)  -->
<svg version="1.1" id="Layer_1" xmlns="http://www.w3.org/2000/svg" xmlns:xlink="http://www.w3.org/1999/xlink" x="0px" y="0px"
	 viewBox="0 0 512.001 512.001" style="enable-background:new 0 0 512.001 512.001;" xml:space="preserve">
<g>
	<g>
		<path d="M487.664,24.336C471.971,8.643,451.105,0,428.912,0c-22.194,0-43.059,8.643-58.753,24.336L108.35,286.145
			c-1.079,1.079-1.902,2.386-2.408,3.825l-33.439,94.966L2.988,454.451c-3.983,3.983-3.983,10.441,0,14.425l40.138,40.138
			c1.992,1.992,4.602,2.987,7.212,2.987s5.221-0.995,7.212-2.987l69.516-69.516l94.966-33.439c1.439-0.507,2.746-1.329,3.825-2.408
			l261.808-261.808C503.358,126.148,512,105.283,512,83.089C512,60.895,503.358,40.03,487.664,24.336z M50.338,487.377
			l-25.714-25.714l56.73-56.73l25.714,25.714L50.338,487.377z M473.24,127.418l-260.17,260.17l-88.909,31.305l-31.055-31.055
			l31.305-88.909l260.17-260.17c11.841-11.84,27.584-18.362,44.329-18.362s32.487,6.521,44.329,18.362
			c11.84,11.841,18.362,27.584,18.362,44.329S485.081,115.576,473.24,127.418z"/>
	</g>
</g>
<g>
	<g>
		<path d="M461.21,86.368L425.633,50.79c-1.912-1.912-4.507-2.987-7.212-2.987s-5.3,1.075-7.212,2.987L292.62,169.38
			c-3.983,3.983-3.983,10.441,0,14.425l35.577,35.577c1.992,1.992,4.602,2.987,7.212,2.987c2.61,0,5.221-0.996,7.212-2.987
			l118.59-118.59c1.912-1.912,2.987-4.507,2.987-7.212S463.123,88.28,461.21,86.368z M335.408,197.745l-21.153-21.153
			L418.421,72.427l21.153,21.153L335.408,197.745z"/>
	</g>
</g>
<g>
	<g>
		<path d="M229.048,246.463c-3.983-3.982-10.441-3.982-14.424,0l-43.787,43.787c-3.983,3.983-3.983,10.441,0,14.425
			c1.992,1.991,4.602,2.987,7.212,2.987s5.221-0.996,7.212-2.987l43.787-43.787C233.031,256.905,233.031,250.447,229.048,246.463z"
			/>
	</g>
</g>
<g>
	<g>
		<path d="M261.887,213.623c-3.982-3.984-10.44-3.984-14.424,0l-4.561,4.561c-3.983,3.983-3.983,10.441,0,14.425
			c1.992,1.992,4.602,2.987,7.212,2.987s5.221-0.995,7.212-2.987l4.561-4.561C265.87,224.065,265.87,217.607,261.887,213.623z"/>
	</g>
</g>
<g>
</g>
<g>
</g>
<g>
</g>
<g>
</g>
<g>
</g>
<g>
</g>
<g>
</g>
<g>
</g>
<g>
</g>
<g>
</g>
<g>
</g>
<g>
</g>
<g>
</g>
<g>
</g>
<g>
</g>
</svg>
